<svg width="45" height="45" viewBox="0 0 45 45" fill="none" xmlns="http://www.w3.org/2000/svg">
<path fill-rule="evenodd" clip-rule="evenodd" d="M5.30272 1.43492C5.79482 0.943522 6.38573 0.562325 7.03628 0.31659C7.68684 0.0708557 8.38218 -0.033805 9.07624 0.00954385C9.7703 0.0528927 10.4472 0.243261 11.0622 0.568034C11.6771 0.892807 12.216 1.34457 12.6431 1.89338L17.6914 8.3793C18.6167 9.56904 18.9429 11.1188 18.5773 12.5814L17.0389 18.741C16.9594 19.0601 16.9637 19.3942 17.0514 19.7111C17.1391 20.028 17.3073 20.3168 17.5395 20.5495L24.4496 27.4602C24.6826 27.6929 24.9719 27.8614 25.2893 27.9491C25.6067 28.0369 25.9414 28.0409 26.2608 27.9608L32.4172 26.4223C33.1389 26.2419 33.8922 26.2278 34.6201 26.3813C35.348 26.5348 36.0315 26.8518 36.6189 27.3083L43.1043 32.3541C45.4358 34.1683 45.6496 37.6138 43.5628 39.6979L40.6547 42.6062C38.5736 44.6875 35.463 45.6016 32.5634 44.5807C25.142 41.9692 18.4037 37.7202 12.8484 32.1488C7.27785 26.5939 3.02919 19.8561 0.417561 12.4351C-0.600532 9.5381 0.313502 6.42452 2.39469 4.34318L5.30272 1.43492Z" fill="black"/>
</svg>
