<svg width="31" height="31" viewBox="0 0 31 31" fill="none" xmlns="http://www.w3.org/2000/svg">
<circle cx="15.5" cy="15.5" r="15.5" fill="#FF881A"/>
<path d="M23.2 22.2C23.2 23.199 22.399 24 21.4 24C20.9226 24 20.4648 23.8104 20.1272 23.4728C19.7896 23.1352 19.6 22.6774 19.6 22.2C19.6 21.201 20.401 20.4 21.4 20.4C21.8774 20.4 22.3352 20.5896 22.6728 20.9272C23.0104 21.2648 23.2 21.7226 23.2 22.2ZM12.4 20.4C11.401 20.4 10.6 21.201 10.6 22.2C10.6 22.6774 10.7896 23.1352 11.1272 23.4728C11.4648 23.8104 11.9226 24 12.4 24C13.399 24 14.2 23.199 14.2 22.2C14.2 21.201 13.399 20.4 12.4 20.4ZM12.58 17.367L12.553 17.475C12.553 17.601 12.652 17.7 12.778 17.7H23.2V19.5H12.4C11.9226 19.5 11.4648 19.3104 11.1272 18.9728C10.7896 18.6352 10.6 18.1774 10.6 17.7C10.6 17.385 10.681 17.088 10.816 16.836L12.04 14.631L8.8 7.8H7V6H9.943L10.789 7.8H24.1C24.595 7.8 25 8.205 25 8.7C25 8.853 24.955 9.006 24.892 9.15L21.67 14.973C21.364 15.522 20.77 15.9 20.095 15.9H13.39L12.58 17.367ZM13.75 14.1H15.1V12.3H12.904L13.75 14.1ZM16 12.3V14.1H18.7V12.3H16ZM18.7 11.4V9.6H16V11.4H18.7ZM21.499 12.3H19.6V14.1H20.5L21.499 12.3ZM23.002 9.6H19.6V11.4H22.003L23.002 9.6ZM11.626 9.6L12.472 11.4H15.1V9.6H11.626Z" fill="white"/>
</svg>
