<svg width="47" height="47" viewBox="0 0 47 47" fill="none" xmlns="http://www.w3.org/2000/svg">
<path d="M13.63 0H33.37C40.89 0 47 6.11 47 13.63V33.37C47 36.9849 45.564 40.4517 43.0079 43.0079C40.4517 45.564 36.9849 47 33.37 47H13.63C6.11 47 0 40.89 0 33.37V13.63C0 10.0151 1.43601 6.54826 3.99213 3.99213C6.54826 1.43601 10.0151 0 13.63 0ZM13.16 4.7C10.9163 4.7 8.76443 5.59132 7.17788 7.17788C5.59132 8.76443 4.7 10.9163 4.7 13.16V33.84C4.7 38.5165 8.4835 42.3 13.16 42.3H33.84C36.0837 42.3 38.2356 41.4087 39.8221 39.8221C41.4087 38.2356 42.3 36.0837 42.3 33.84V13.16C42.3 8.4835 38.5165 4.7 33.84 4.7H13.16ZM35.8375 8.225C36.6166 8.225 37.3637 8.53449 37.9146 9.08537C38.4655 9.63626 38.775 10.3834 38.775 11.1625C38.775 11.9416 38.4655 12.6887 37.9146 13.2396C37.3637 13.7905 36.6166 14.1 35.8375 14.1C35.0584 14.1 34.3113 13.7905 33.7604 13.2396C33.2095 12.6887 32.9 11.9416 32.9 11.1625C32.9 10.3834 33.2095 9.63626 33.7604 9.08537C34.3113 8.53449 35.0584 8.225 35.8375 8.225ZM23.5 11.75C26.6163 11.75 29.605 12.9879 31.8085 15.1915C34.0121 17.395 35.25 20.3837 35.25 23.5C35.25 26.6163 34.0121 29.605 31.8085 31.8085C29.605 34.0121 26.6163 35.25 23.5 35.25C20.3837 35.25 17.395 34.0121 15.1915 31.8085C12.9879 29.605 11.75 26.6163 11.75 23.5C11.75 20.3837 12.9879 17.395 15.1915 15.1915C17.395 12.9879 20.3837 11.75 23.5 11.75ZM23.5 16.45C21.6302 16.45 19.837 17.1928 18.5149 18.5149C17.1928 19.837 16.45 21.6302 16.45 23.5C16.45 25.3698 17.1928 27.163 18.5149 28.4851C19.837 29.8072 21.6302 30.55 23.5 30.55C25.3698 30.55 27.163 29.8072 28.4851 28.4851C29.8072 27.163 30.55 25.3698 30.55 23.5C30.55 21.6302 29.8072 19.837 28.4851 18.5149C27.163 17.1928 25.3698 16.45 23.5 16.45Z" fill="black"/>
</svg>
