<svg width="39" height="56" viewBox="0 0 39 56" fill="none" xmlns="http://www.w3.org/2000/svg">
<path d="M11 41.652C12.6029 43.6941 14.0617 45.8452 15.3659 48.0897C16.4795 50.2006 16.9437 51.632 17.7575 54.1754C18.2566 55.5806 18.7077 56 19.6775 56C20.7343 56 21.2138 55.2865 21.5842 54.1831C22.3535 51.7811 22.9571 49.948 23.9094 48.2159C25.778 44.8719 28.1 41.9004 30.3815 39.0445C30.9992 38.2362 34.9926 33.5272 36.7904 29.8117C36.7904 29.8117 39 25.7302 39 20.03C39 14.698 36.8209 11 36.8209 11L30.547 12.6797L26.737 22.7119L25.7943 24.0952L25.6059 24.3458L25.3552 24.6595L24.9151 25.1606L24.2863 25.7891L20.8935 28.5525L12.4111 33.4487L11 41.652Z" fill="#34A853"/>
<path d="M2 28.7478C4.0604 33.7477 8.03361 38.1429 10.7218 42L25 24.0311C25 24.0311 22.9884 26.8261 19.3396 26.8261C15.2751 26.8261 11.9916 23.3779 11.9916 19.0299C11.9916 16.0483 13.6801 14 13.6801 14L3.98766 16.7592L2 28.7476V28.7478Z" fill="#FBBC04"/>
<path d="M25.6103 1.00016C30.4087 2.5907 34.5158 5.92986 37 10.8538L25.4533 25C25.4533 25 27.1618 22.9581 27.1618 20.0567C27.1618 15.7002 23.5935 12.4456 19.7387 12.4456C16.0935 12.4456 14 15.1778 14 15.1778V6.26586L25.6103 1V1.00016Z" fill="#4285F4"/>
<path d="M4 6.63838C6.89687 3.36786 11.9943 0 19.0218 0C22.4313 0 25 0.844648 25 0.844648L13.2655 14H4.95153L4 6.63853V6.63838Z" fill="#1A73E8"/>
<path d="M1.95463 29C1.95463 29 0 25.2037 0 19.7039C0 14.5059 2.0374 9.96229 4.65179 7L14 14.8021L1.95463 29Z" fill="#EA4335"/>
</svg>
