<svg width="23" height="25" viewBox="0 0 23 25" fill="none" xmlns="http://www.w3.org/2000/svg">
<path d="M4.45 1L1 5.6V21.7C1 22.31 1.24232 22.895 1.67365 23.3263C2.10499 23.7577 2.69 24 3.3 24H19.4C20.01 24 20.595 23.7577 21.0263 23.3263C21.4577 22.895 21.7 22.31 21.7 21.7V5.6L18.25 1H4.45Z" stroke="black" stroke-width="2" stroke-linecap="round" stroke-linejoin="round"/>
<path d="M1 5.10326H21.7" stroke="black" stroke-width="2" stroke-linecap="round" stroke-linejoin="round"/>
<path d="M15.95 9.70325C15.95 10.9232 15.4654 12.0933 14.6027 12.9559C13.74 13.8186 12.57 14.3032 11.35 14.3032C10.13 14.3032 8.95998 13.8186 8.09731 12.9559C7.23464 12.0933 6.75 10.9232 6.75 9.70325" stroke="black" stroke-width="2" stroke-linecap="round" stroke-linejoin="round"/>
</svg>
