<svg width="27" height="32" viewBox="0 0 27 32" fill="none" xmlns="http://www.w3.org/2000/svg">
<path d="M19.25 4.5H22.125C22.8875 4.5 23.6188 4.8029 24.1579 5.34207C24.6971 5.88123 25 6.6125 25 7.375V27.5C25 28.2625 24.6971 28.9938 24.1579 29.5329C23.6188 30.0721 22.8875 30.375 22.125 30.375H4.875C4.1125 30.375 3.38123 30.0721 2.84207 29.5329C2.3029 28.9938 2 28.2625 2 27.5V7.375C2 6.6125 2.3029 5.88123 2.84207 5.34207C3.38123 4.8029 4.1125 4.5 4.875 4.5H7.75" stroke="white" stroke-width="3" stroke-linecap="round" stroke-linejoin="round"/>
<path d="M17.8125 1.625H9.1875C8.39359 1.625 7.75 2.26859 7.75 3.0625V5.9375C7.75 6.73141 8.39359 7.375 9.1875 7.375H17.8125C18.6064 7.375 19.25 6.73141 19.25 5.9375V3.0625C19.25 2.26859 18.6064 1.625 17.8125 1.625Z" stroke="white" stroke-width="3" stroke-linecap="round" stroke-linejoin="round"/>
</svg>
